<svg width="275" height="65" version="1.1" viewBox="0 0 72.758 17.198" xmlns="http://www.w3.org/2000/svg">
 <g transform="matrix(.035278 0 0 -.035278 .55274 16.402)" fill="#fff">
  <path d="m219.8 91.094c25.508 0 46.211-20.391 46.211-45.547s-20.703-45.547-46.211-45.547-46.172 20.391-46.172 45.547 20.664 45.547 46.172 45.547m-31.524 91.719c35.118-7.149 185.24-5.625 233.52-7.969 13.711-0.86 25.274-2.813 37.578-9.102 4.922-2.656 8.555-5.195 12.227-9.414 3.554-4.258 5.429-8.008 6.172-13.515 0.468-5.586-0.586-9.727-3.399-14.571-3.125-4.765-6.406-7.695-11.133-10.859-3.984-2.461-7.656-4.18-12.07-5.82-9.258-3.399-17.656-5.196-27.422-6.68-90.195-6.3283-161.05 4.14-247.58 6.367-5.937 0.938-10.469 1.797-13.75 2.578-46.055 10.664 148.52 4.336 158.52 4.492 33.828 0.586 65.742 1.914 99.023 8.321 9.883 1.953 20.977 4.609 29.336 10.507 0.742 0.586 1.953 1.485 2.734 2.422-1.328 1.211-2.89 2.071-4.531 2.852-8.476 3.633-17.383 4.492-26.562 4.766-57.383 0.585-190.78-6.133-240.7 1.015-21.172 5.078-34.883 11.641-49.532 27.735-10.82 13.203-16.797 24.57-23.007 40.117-3.79 9.531-7.383 19.804-10.274 29.648-12.031 41.094-21.602 83.711-31.562 125.39-2.9297 12.07-6.211 21.836-12.734 32.461-4.7656 6.64-9.2188 11.328-16.406 15.312-2.8906 1.406-5.3515 2.227-8.5156 2.813-3.0469 0.429-5.4297 0.468-8.4765 0-3.1641-0.586-5.4688-1.367-8.2813-2.813-1.3672-0.742-2.8906-1.953-4.4531-3.008-2.0703-1.406-4.2188-2.539-6.2891-1.992-2.1875 3.321 1.3281 9.844 3.125 12.617 2.8906 3.985 5.8594 6.485 10.117 8.946 0.625 0.351 1.25 0.664 1.875 0.976 4.0234 1.875 7.4219 2.813 11.836 3.321 5.586 0.625 9.961 0.234 15.43-1.055 12.734-3.242 21.172-9.336 30.039-18.75 11.172-12.461 16.953-24.688 22.188-40.391 12.89-40.859 24.414-82.031 37.226-122.81 6.25-19.141 13.242-41.133 25.977-57.149 8.867-10 16.836-13.437 29.765-16.757zm358.56 233.05c0.117-1.171 0.195-2.031 0.117-3.164-0.117-0.625-0.117-1.211-0.273-1.836-0.156-0.664-0.274-1.328-0.469-1.953-0.469-1.679-0.937-3.398-1.484-5.039-1.758-5.586-3.516-11.484-5.508-16.953-6.094-17.5-12.461-34.57-19.492-51.758-7.93-18.945-16.016-36.836-26.367-54.648-4.454-7.5-8.789-14.18-14.493-20.86-4.961-5.742-9.531-10.156-16.679-13.125-12.852-4.023-27.539-4.921-40.938-5.625-88.398-1.914-184.1 7.149-267.38 3.633-3.632 0.508-6.406 0.977-8.437 1.446-32.891 7.343 129.22 8.203 129.73 8.203 37.11 0.429 145.82 0.234 178.44 12.851 2.656 1.446 5.352 4.61 7.227 6.953 4.414 5.743 7.89 11.641 11.328 17.969 6.953 13.281 10.937 21.836 16.406 35.547-56.367 0.195-107.62-2.031-163.71-3.984-46.211-1.641-94.922-2.071-124.06 1.562-1.601 0.156-3.671 0.625-5.195 1.25-2.422 1.055-3.945 2.227-5.39 4.18-0.586 1.367-0.508 2.422 0 3.242 1.289 2.227 5.468 3.008 8.476 4.219 22.617 7.031 51.602 8.672 76.172 9.375 27.617 0.351 215.82-8.594 222.23 2.383 6.289 16.836 10.078 28.359 15.351 45.546 0.352 1.055 0.625 2.149 0.977 3.243-30.547-0.86-61.172-1.524-91.68-1.875-14.063-0.118-206.25-1.993-234.45 12.5-2.227 1.172-3.438 2.422-3.438 3.789 1.602 3.359 10.547 4.961 13.75 5.625 80.86 12.5 248.56 8.672 335.24 8.867 2.968 0.039 5.234-0.586 7.734-2.109 1.914-1.25 3.164-2.461 4.375-4.375 1.016-1.719 1.563-3.125 1.914-5.079zm-177.62-324.77c25.508 0 46.211-20.391 46.211-45.547s-20.703-45.547-46.211-45.547-46.172 20.391-46.172 45.547 20.664 45.547 46.172 45.547" fill-rule="evenodd"/>
  <path d="m598.48 433.86h150.47l-1.132-8.711h-101.45l-16.719-116.64h94.61l-1.172-8.75h-94.57l-16.368-116.64h101.45l-1.133-8.75h-150.47l36.485 259.49"/>
  <path d="m869.3 331.28c-9.887 11.016-19.766 14.805-34.571 14.805-19.375 0-34.96-30.742-42.929-86.602-7.617-53.949-2.309-82.074 12.89-82.074 14.063 0 31.914 13.285 46.368 32.66l16.718 120.46zm62.304 102.58-36.488-259.49h-49.019l2.304 14.805c-14.062-14.414-31.172-20.899-50.547-20.899-47.851 0-66.875 31.915-57.738 95.782 8.363 58.867 39.496 90.781 88.125 90.781 15.981 0 30.395-5.703 41.059-13.672l13.277 92.695h49.027"/>
  <path d="m1088.6 357.49c7.19 49.766-7.62 67.266-56.99 69.18l-21.29-147.43c22.42 2.66 69.92 16.723 78.28 78.246zm-104.88 76.367h44.455c75.23-0.351 122.73-9.492 112.85-80.898-7.62-52.465-53.2-80.59-131.44-81.328l-13.717-97.266h-48.633l36.485 259.49"/>
  <path d="m1212.9 177.02c20.54 0 39.92 34.961 47.14 86.637 6.84 49.375-2.3 82.074-22.42 82.074-20.15 0-39.92-35.351-47.11-86.64-6.87-49.024 2.66-82.071 22.39-82.071zm25.07 177.81c52.07 0 81.72-38.75 73.72-95.742-7.58-54.336-47.47-90.821-98.79-90.821-52.43 0-82.07 38.75-74.07 95.387 7.58 54.692 47.5 91.176 99.14 91.176"/>
  <path d="m1362.1 349.8h48.24l-3.05-22.422c19.03 15.937 40.67 23.555 63.83 22.422l-0.35-6.485c-33.83 2.305-65.35-29.605-69.53-60.39l-15.2-107.54h-48.28l24.34 174.41"/>
  <path d="m1498.5 348.78h46.72l-24.3-174.41h-46.76zm35.35 88.907c14.41 0 24.69-12.93 22.77-28.516-2.26-14.063-14.8-24.297-29.26-24.297-15.19 0-25.07 12.891-22.77 28.867 1.88 13.281 14.81 23.946 29.26 23.946"/>
  <path d="m1588.8 348.78h46.76l-18.24-130.71c-3.05-22.066 0.35-36.09 7.58-36.09 9.14 0 26.99 14.801 55.11 43.282l17.47 123.52h46.71l-24.29-174.41h-46.76l4.96 34.957c-26.6-28.863-48.24-41.051-71.05-41.051-31.18 0-41.41 15.973-36.1 52.071l17.85 128.44"/>
  <path d="m1793 348.78h46.76l-4.96-34.218c24.68 28.867 36.09 40.273 58.51 40.273 28.48 0 39.53-13.281 37.23-42.148 25.08 30.742 36.48 42.148 58.9 42.148 31.14 0 41.41-15.938 36.1-52.031l-17.85-128.44h-46.76l18.24 130.7c3.05 20.899 0 28.477-8.71 28.477-4.57 0-10.66-4.926-27.77-21.641l-13.68-12.539-17.46-125h-46.75l18.24 130.7c3.05 20.899 0 28.477-8.71 28.477-4.57 0-10.67-4.926-27.74-21.641l-13.71-12.539-17.46-125h-46.72l24.3 174.41"/>
 </g>
</svg>
